<mxfile host="65bd71144e">
    <diagram id="RL0nU6kSSy2ttf3N9WEb" name="Seite-1">
        <mxGraphModel dx="2572" dy="1600" grid="1" gridSize="10" guides="1" tooltips="1" connect="1" arrows="1" fold="1" page="1" pageScale="1" pageWidth="2336" pageHeight="1654" math="0" shadow="0">
            <root>
                <mxCell id="0"/>
                <mxCell id="1" parent="0"/>
                <mxCell id="2" value="Community" style="ellipse;whiteSpace=wrap;html=1;fillColor=#d5e8d4;gradientColor=#97d077;strokeColor=#82b366;fontSize=17;fontStyle=1" vertex="1" parent="1">
                    <mxGeometry x="800" y="240" width="120" height="80" as="geometry"/>
                </mxCell>
                <mxCell id="3" value="User" style="ellipse;whiteSpace=wrap;html=1;fillColor=#fff2cc;gradientColor=#ffd966;strokeColor=#d6b656;fontSize=17;fontStyle=1" vertex="1" parent="1">
                    <mxGeometry x="1480" y="800" width="120" height="80" as="geometry"/>
                </mxCell>
                <mxCell id="4" value="Rollen &amp;amp; Rechte" style="ellipse;whiteSpace=wrap;html=1;fillColor=#e6d0de;gradientColor=#d5739d;strokeColor=#996185;fontSize=17;fontStyle=1" vertex="1" parent="1">
                    <mxGeometry x="1480" y="200" width="120" height="80" as="geometry"/>
                </mxCell>
                <mxCell id="28" style="edgeStyle=none;html=1;entryX=1;entryY=0.5;entryDx=0;entryDy=0;fontSize=14;endArrow=none;endFill=0;" edge="1" parent="1" source="5" target="23">
                    <mxGeometry relative="1" as="geometry"/>
                </mxCell>
                <mxCell id="5" value="Konto" style="ellipse;whiteSpace=wrap;html=1;fillColor=#dae8fc;gradientColor=#7ea6e0;strokeColor=#6c8ebf;fontSize=17;fontStyle=1" vertex="1" parent="1">
                    <mxGeometry x="460" y="800" width="120" height="80" as="geometry"/>
                </mxCell>
                <mxCell id="6" value="Contributions" style="ellipse;whiteSpace=wrap;html=1;fillColor=#ffcd28;gradientColor=#ffa500;strokeColor=#d79b00;fontSize=17;fontStyle=1" vertex="1" parent="1">
                    <mxGeometry x="280" y="240" width="120" height="80" as="geometry"/>
                </mxCell>
                <mxCell id="8" style="edgeStyle=none;html=1;entryX=1;entryY=1;entryDx=0;entryDy=0;fontSize=15;endArrow=none;endFill=0;" edge="1" parent="1" source="7" target="5">
                    <mxGeometry relative="1" as="geometry"/>
                </mxCell>
                <mxCell id="7" value="Transaktionen" style="ellipse;whiteSpace=wrap;html=1;fillColor=#dae8fc;gradientColor=#7ea6e0;strokeColor=#6c8ebf;fontSize=14;fontStyle=1" vertex="1" parent="1">
                    <mxGeometry x="560" y="940" width="120" height="80" as="geometry"/>
                </mxCell>
                <mxCell id="10" style="edgeStyle=none;html=1;entryX=1;entryY=0.5;entryDx=0;entryDy=0;fontSize=14;endArrow=none;endFill=0;" edge="1" parent="1" source="9" target="2">
                    <mxGeometry relative="1" as="geometry"/>
                </mxCell>
                <mxCell id="9" value="Federation" style="ellipse;whiteSpace=wrap;html=1;fillColor=#d5e8d4;gradientColor=#97d077;strokeColor=#82b366;fontSize=14;fontStyle=1" vertex="1" parent="1">
                    <mxGeometry x="1000" y="260" width="120" height="40" as="geometry"/>
                </mxCell>
                <mxCell id="19" style="edgeStyle=none;html=1;entryX=1;entryY=1;entryDx=0;entryDy=0;fontSize=14;endArrow=none;endFill=0;" edge="1" parent="1" source="11" target="3">
                    <mxGeometry relative="1" as="geometry"/>
                </mxCell>
                <mxCell id="11" value="Register" style="ellipse;whiteSpace=wrap;html=1;fillColor=#fff2cc;gradientColor=#ffd966;strokeColor=#d6b656;fontSize=14;fontStyle=1" vertex="1" parent="1">
                    <mxGeometry x="1570" y="900" width="120" height="40" as="geometry"/>
                </mxCell>
                <mxCell id="12" value="Login" style="ellipse;whiteSpace=wrap;html=1;fillColor=#fff2cc;gradientColor=#ffd966;strokeColor=#d6b656;fontSize=14;fontStyle=1" vertex="1" parent="1">
                    <mxGeometry x="1570" y="940" width="120" height="40" as="geometry"/>
                </mxCell>
                <mxCell id="18" style="edgeStyle=none;html=1;entryX=0;entryY=0.5;entryDx=0;entryDy=0;fontSize=14;endArrow=none;endFill=0;" edge="1" parent="1" source="13" target="14">
                    <mxGeometry relative="1" as="geometry"/>
                </mxCell>
                <mxCell id="13" value="Profile" style="ellipse;whiteSpace=wrap;html=1;fillColor=#fff2cc;gradientColor=#ffd966;strokeColor=#d6b656;fontSize=14;fontStyle=1" vertex="1" parent="1">
                    <mxGeometry x="1570" y="980" width="120" height="40" as="geometry"/>
                </mxCell>
                <mxCell id="14" value="Passwort" style="ellipse;whiteSpace=wrap;html=1;fillColor=#fff2cc;gradientColor=#ffd966;strokeColor=#d6b656;fontSize=14;fontStyle=1" vertex="1" parent="1">
                    <mxGeometry x="1730" y="980" width="120" height="40" as="geometry"/>
                </mxCell>
                <mxCell id="15" value="Email" style="ellipse;whiteSpace=wrap;html=1;fillColor=#fff2cc;gradientColor=#ffd966;strokeColor=#d6b656;fontSize=14;fontStyle=1" vertex="1" parent="1">
                    <mxGeometry x="1730" y="1020" width="120" height="40" as="geometry"/>
                </mxCell>
                <mxCell id="16" value="Alias" style="ellipse;whiteSpace=wrap;html=1;fillColor=#fff2cc;gradientColor=#ffd966;strokeColor=#d6b656;fontSize=14;fontStyle=1" vertex="1" parent="1">
                    <mxGeometry x="1730" y="1060" width="120" height="40" as="geometry"/>
                </mxCell>
                <mxCell id="17" value="Sonstiges" style="ellipse;whiteSpace=wrap;html=1;fillColor=#fff2cc;gradientColor=#ffd966;strokeColor=#d6b656;fontSize=14;fontStyle=1" vertex="1" parent="1">
                    <mxGeometry x="1730" y="1100" width="120" height="40" as="geometry"/>
                </mxCell>
                <mxCell id="20" value="Umzug" style="ellipse;whiteSpace=wrap;html=1;fillColor=#fff2cc;gradientColor=#ffd966;strokeColor=#d6b656;fontSize=14;fontStyle=1" vertex="1" parent="1">
                    <mxGeometry x="1570" y="1020" width="120" height="40" as="geometry"/>
                </mxCell>
                <mxCell id="21" value="DSGVO" style="ellipse;whiteSpace=wrap;html=1;fillColor=#fff2cc;gradientColor=#ffd966;strokeColor=#d6b656;fontSize=14;fontStyle=1" vertex="1" parent="1">
                    <mxGeometry x="1570" y="1060" width="120" height="40" as="geometry"/>
                </mxCell>
                <mxCell id="22" value="Löschen" style="ellipse;whiteSpace=wrap;html=1;fillColor=#fff2cc;gradientColor=#ffd966;strokeColor=#d6b656;fontSize=14;fontStyle=1" vertex="1" parent="1">
                    <mxGeometry x="1570" y="1100" width="120" height="40" as="geometry"/>
                </mxCell>
                <mxCell id="30" style="edgeStyle=none;html=1;entryX=1;entryY=0.5;entryDx=0;entryDy=0;fontSize=14;endArrow=none;endFill=0;" edge="1" parent="1" source="23" target="29">
                    <mxGeometry relative="1" as="geometry"/>
                </mxCell>
                <mxCell id="23" value="Anlegen" style="ellipse;whiteSpace=wrap;html=1;fillColor=#dae8fc;gradientColor=#7ea6e0;strokeColor=#6c8ebf;fontSize=14;fontStyle=1" vertex="1" parent="1">
                    <mxGeometry x="240" y="820" width="120" height="40" as="geometry"/>
                </mxCell>
                <mxCell id="24" value="Anzeigen" style="ellipse;whiteSpace=wrap;html=1;fillColor=#dae8fc;gradientColor=#7ea6e0;strokeColor=#6c8ebf;fontSize=14;fontStyle=1" vertex="1" parent="1">
                    <mxGeometry x="240" y="860" width="120" height="40" as="geometry"/>
                </mxCell>
                <mxCell id="25" value="Kontoauszug" style="ellipse;whiteSpace=wrap;html=1;fillColor=#dae8fc;gradientColor=#7ea6e0;strokeColor=#6c8ebf;fontSize=14;fontStyle=1" vertex="1" parent="1">
                    <mxGeometry x="240" y="900" width="120" height="40" as="geometry"/>
                </mxCell>
                <mxCell id="26" value="Umzug" style="ellipse;whiteSpace=wrap;html=1;fillColor=#dae8fc;gradientColor=#7ea6e0;strokeColor=#6c8ebf;fontSize=14;fontStyle=1" vertex="1" parent="1">
                    <mxGeometry x="240" y="940" width="120" height="40" as="geometry"/>
                </mxCell>
                <mxCell id="27" value="Löschen" style="ellipse;whiteSpace=wrap;html=1;fillColor=#dae8fc;gradientColor=#7ea6e0;strokeColor=#6c8ebf;fontSize=14;fontStyle=1" vertex="1" parent="1">
                    <mxGeometry x="240" y="980" width="120" height="40" as="geometry"/>
                </mxCell>
                <mxCell id="29" value="Standard" style="ellipse;whiteSpace=wrap;html=1;fillColor=#dae8fc;gradientColor=#7ea6e0;strokeColor=#6c8ebf;fontSize=14;fontStyle=1" vertex="1" parent="1">
                    <mxGeometry x="80" y="820" width="120" height="40" as="geometry"/>
                </mxCell>
                <mxCell id="31" value="AUF" style="ellipse;whiteSpace=wrap;html=1;fillColor=#dae8fc;gradientColor=#7ea6e0;strokeColor=#6c8ebf;fontSize=14;fontStyle=1" vertex="1" parent="1">
                    <mxGeometry x="80" y="860" width="120" height="40" as="geometry"/>
                </mxCell>
                <mxCell id="32" value="Gemeinwohl" style="ellipse;whiteSpace=wrap;html=1;fillColor=#dae8fc;gradientColor=#7ea6e0;strokeColor=#6c8ebf;fontSize=14;fontStyle=1" vertex="1" parent="1">
                    <mxGeometry x="80" y="900" width="120" height="40" as="geometry"/>
                </mxCell>
                <mxCell id="34" style="edgeStyle=none;html=1;entryX=1;entryY=0.5;entryDx=0;entryDy=0;fontSize=14;endArrow=none;endFill=0;exitX=0;exitY=0.5;exitDx=0;exitDy=0;" edge="1" parent="1" source="36" target="7">
                    <mxGeometry relative="1" as="geometry"/>
                </mxCell>
                <mxCell id="33" value="senden" style="ellipse;whiteSpace=wrap;html=1;fillColor=#dae8fc;gradientColor=#7ea6e0;strokeColor=#6c8ebf;fontSize=14;fontStyle=1" vertex="1" parent="1">
                    <mxGeometry x="750" y="1000" width="120" height="40" as="geometry"/>
                </mxCell>
                <mxCell id="85" style="edgeStyle=none;html=1;entryX=0.5;entryY=0;entryDx=0;entryDy=0;fontSize=14;endArrow=none;endFill=0;" edge="1" parent="1" source="35" target="83">
                    <mxGeometry relative="1" as="geometry"/>
                </mxCell>
                <mxCell id="35" value="empfangen" style="ellipse;whiteSpace=wrap;html=1;fillColor=#dae8fc;gradientColor=#7ea6e0;strokeColor=#6c8ebf;fontSize=14;fontStyle=1" vertex="1" parent="1">
                    <mxGeometry x="750" y="1040" width="120" height="40" as="geometry"/>
                </mxCell>
                <mxCell id="36" value="schöpfen" style="ellipse;whiteSpace=wrap;html=1;fillColor=#dae8fc;gradientColor=#7ea6e0;strokeColor=#6c8ebf;fontSize=14;fontStyle=1" vertex="1" parent="1">
                    <mxGeometry x="750" y="960" width="120" height="40" as="geometry"/>
                </mxCell>
                <mxCell id="44" style="edgeStyle=none;html=1;entryX=1;entryY=0;entryDx=0;entryDy=0;fontSize=14;endArrow=none;endFill=0;" edge="1" parent="1" source="37" target="4">
                    <mxGeometry relative="1" as="geometry"/>
                </mxCell>
                <mxCell id="46" style="edgeStyle=none;html=1;entryX=0;entryY=0.5;entryDx=0;entryDy=0;fontSize=14;endArrow=none;endFill=0;" edge="1" parent="1" source="37" target="39">
                    <mxGeometry relative="1" as="geometry"/>
                </mxCell>
                <mxCell id="37" value="Rolle" style="ellipse;whiteSpace=wrap;html=1;fillColor=#e6d0de;gradientColor=#d5739d;strokeColor=#996185;fontSize=14;fontStyle=1" vertex="1" parent="1">
                    <mxGeometry x="1640" y="200" width="120" height="40" as="geometry"/>
                </mxCell>
                <mxCell id="45" style="edgeStyle=none;html=1;entryX=1;entryY=1;entryDx=0;entryDy=0;fontSize=14;endArrow=none;endFill=0;" edge="1" parent="1" source="38" target="4">
                    <mxGeometry relative="1" as="geometry"/>
                </mxCell>
                <mxCell id="38" value="Recht" style="ellipse;whiteSpace=wrap;html=1;fillColor=#e6d0de;gradientColor=#d5739d;strokeColor=#996185;fontSize=14;fontStyle=1" vertex="1" parent="1">
                    <mxGeometry x="1640" y="360" width="120" height="40" as="geometry"/>
                </mxCell>
                <mxCell id="39" value="User" style="ellipse;whiteSpace=wrap;html=1;fillColor=#e6d0de;gradientColor=#d5739d;strokeColor=#996185;fontSize=14;fontStyle=1" vertex="1" parent="1">
                    <mxGeometry x="1820" y="200" width="120" height="40" as="geometry"/>
                </mxCell>
                <mxCell id="47" style="edgeStyle=none;html=1;entryX=0;entryY=0.5;entryDx=0;entryDy=0;fontSize=14;endArrow=none;endFill=0;" edge="1" parent="1" source="40" target="41">
                    <mxGeometry relative="1" as="geometry"/>
                </mxCell>
                <mxCell id="40" value="Admin" style="ellipse;whiteSpace=wrap;html=1;fillColor=#e6d0de;gradientColor=#d5739d;strokeColor=#996185;fontSize=14;fontStyle=1" vertex="1" parent="1">
                    <mxGeometry x="1820" y="240" width="120" height="40" as="geometry"/>
                </mxCell>
                <mxCell id="41" value="SuperUser" style="ellipse;whiteSpace=wrap;html=1;fillColor=#e6d0de;gradientColor=#d5739d;strokeColor=#996185;fontSize=14;fontStyle=1" vertex="1" parent="1">
                    <mxGeometry x="2000" y="240" width="120" height="40" as="geometry"/>
                </mxCell>
                <mxCell id="42" value="Support" style="ellipse;whiteSpace=wrap;html=1;fillColor=#e6d0de;gradientColor=#d5739d;strokeColor=#996185;fontSize=14;fontStyle=1" vertex="1" parent="1">
                    <mxGeometry x="1820" y="280" width="120" height="40" as="geometry"/>
                </mxCell>
                <mxCell id="43" value="AUF-Admin" style="ellipse;whiteSpace=wrap;html=1;fillColor=#e6d0de;gradientColor=#d5739d;strokeColor=#996185;fontSize=14;fontStyle=1" vertex="1" parent="1">
                    <mxGeometry x="2000" y="280" width="120" height="40" as="geometry"/>
                </mxCell>
                <mxCell id="48" value="Gemeinwohl-Admin" style="ellipse;whiteSpace=wrap;html=1;fillColor=#e6d0de;gradientColor=#d5739d;strokeColor=#996185;fontSize=14;fontStyle=1" vertex="1" parent="1">
                    <mxGeometry x="2000" y="320" width="120" height="40" as="geometry"/>
                </mxCell>
                <mxCell id="49" value="Contribution-Admin" style="ellipse;whiteSpace=wrap;html=1;fillColor=#e6d0de;gradientColor=#d5739d;strokeColor=#996185;fontSize=14;fontStyle=1" vertex="1" parent="1">
                    <mxGeometry x="2000" y="360" width="120" height="40" as="geometry"/>
                </mxCell>
                <mxCell id="50" value="Federation-Admin" style="ellipse;whiteSpace=wrap;html=1;fillColor=#e6d0de;gradientColor=#d5739d;strokeColor=#996185;fontSize=14;fontStyle=1" vertex="1" parent="1">
                    <mxGeometry x="2000" y="400" width="120" height="40" as="geometry"/>
                </mxCell>
                <mxCell id="51" value="Backup-Admin" style="ellipse;whiteSpace=wrap;html=1;fillColor=#e6d0de;gradientColor=#d5739d;strokeColor=#996185;fontSize=14;fontStyle=1" vertex="1" parent="1">
                    <mxGeometry x="2000" y="440" width="120" height="40" as="geometry"/>
                </mxCell>
                <mxCell id="57" style="edgeStyle=none;html=1;entryX=0.5;entryY=1;entryDx=0;entryDy=0;fontSize=14;endArrow=none;endFill=0;" edge="1" parent="1" source="52" target="42">
                    <mxGeometry relative="1" as="geometry"/>
                </mxCell>
                <mxCell id="52" value="Helpdesk" style="ellipse;whiteSpace=wrap;html=1;fillColor=#e6d0de;gradientColor=#d5739d;strokeColor=#996185;fontSize=14;fontStyle=1" vertex="1" parent="1">
                    <mxGeometry x="1820" y="350" width="120" height="40" as="geometry"/>
                </mxCell>
                <mxCell id="53" value="Transaction" style="ellipse;whiteSpace=wrap;html=1;fillColor=#e6d0de;gradientColor=#d5739d;strokeColor=#996185;fontSize=14;fontStyle=1" vertex="1" parent="1">
                    <mxGeometry x="1820" y="390" width="120" height="40" as="geometry"/>
                </mxCell>
                <mxCell id="54" value="Contribution" style="ellipse;whiteSpace=wrap;html=1;fillColor=#e6d0de;gradientColor=#d5739d;strokeColor=#996185;fontSize=14;fontStyle=1" vertex="1" parent="1">
                    <mxGeometry x="1820" y="430" width="120" height="40" as="geometry"/>
                </mxCell>
                <mxCell id="55" value="Community" style="ellipse;whiteSpace=wrap;html=1;fillColor=#e6d0de;gradientColor=#d5739d;strokeColor=#996185;fontSize=14;fontStyle=1" vertex="1" parent="1">
                    <mxGeometry x="1820" y="470" width="120" height="40" as="geometry"/>
                </mxCell>
                <mxCell id="56" value="User" style="ellipse;whiteSpace=wrap;html=1;fillColor=#e6d0de;gradientColor=#d5739d;strokeColor=#996185;fontSize=14;fontStyle=1" vertex="1" parent="1">
                    <mxGeometry x="1820" y="510" width="120" height="40" as="geometry"/>
                </mxCell>
                <mxCell id="64" style="edgeStyle=none;html=1;entryX=0;entryY=0.5;entryDx=0;entryDy=0;fontSize=14;endArrow=none;endFill=0;" edge="1" parent="1" source="58" target="6">
                    <mxGeometry relative="1" as="geometry"/>
                </mxCell>
                <mxCell id="58" value="anlegen" style="ellipse;whiteSpace=wrap;html=1;fillColor=#ffcd28;gradientColor=#ffa500;strokeColor=#d79b00;fontSize=14;fontStyle=1" vertex="1" parent="1">
                    <mxGeometry x="120" y="260" width="120" height="40" as="geometry"/>
                </mxCell>
                <mxCell id="59" value="löschen" style="ellipse;whiteSpace=wrap;html=1;fillColor=#ffcd28;gradientColor=#ffa500;strokeColor=#d79b00;fontSize=14;fontStyle=1" vertex="1" parent="1">
                    <mxGeometry x="120" y="300" width="120" height="40" as="geometry"/>
                </mxCell>
                <mxCell id="60" value="bearbeiten" style="ellipse;whiteSpace=wrap;html=1;fillColor=#ffcd28;gradientColor=#ffa500;strokeColor=#d79b00;fontSize=14;fontStyle=1" vertex="1" parent="1">
                    <mxGeometry x="120" y="340" width="120" height="40" as="geometry"/>
                </mxCell>
                <mxCell id="61" value="kategorisieren" style="ellipse;whiteSpace=wrap;html=1;fillColor=#ffcd28;gradientColor=#ffa500;strokeColor=#d79b00;fontSize=14;fontStyle=1" vertex="1" parent="1">
                    <mxGeometry x="120" y="380" width="120" height="40" as="geometry"/>
                </mxCell>
                <mxCell id="62" value="auswerten" style="ellipse;whiteSpace=wrap;html=1;fillColor=#ffcd28;gradientColor=#ffa500;strokeColor=#d79b00;fontSize=14;fontStyle=1" vertex="1" parent="1">
                    <mxGeometry x="120" y="420" width="120" height="40" as="geometry"/>
                </mxCell>
                <mxCell id="63" value="bestätigen" style="ellipse;whiteSpace=wrap;html=1;fillColor=#ffcd28;gradientColor=#ffa500;strokeColor=#d79b00;fontSize=14;fontStyle=1" vertex="1" parent="1">
                    <mxGeometry x="120" y="460" width="120" height="40" as="geometry"/>
                </mxCell>
                <mxCell id="72" style="edgeStyle=none;html=1;entryX=0;entryY=0.5;entryDx=0;entryDy=0;fontSize=14;endArrow=none;endFill=0;" edge="1" parent="1" source="65" target="66">
                    <mxGeometry relative="1" as="geometry"/>
                </mxCell>
                <mxCell id="65" value="Verwaltung" style="ellipse;whiteSpace=wrap;html=1;fillColor=#d5e8d4;gradientColor=#97d077;strokeColor=#82b366;fontSize=14;fontStyle=1" vertex="1" parent="1">
                    <mxGeometry x="1000" y="300" width="120" height="40" as="geometry"/>
                </mxCell>
                <mxCell id="66" value="Community intern" style="ellipse;whiteSpace=wrap;html=1;fillColor=#d5e8d4;gradientColor=#97d077;strokeColor=#82b366;fontSize=14;fontStyle=1" vertex="1" parent="1">
                    <mxGeometry x="1160" y="300" width="120" height="40" as="geometry"/>
                </mxCell>
                <mxCell id="67" value="Community extern" style="ellipse;whiteSpace=wrap;html=1;fillColor=#d5e8d4;gradientColor=#97d077;strokeColor=#82b366;fontSize=14;fontStyle=1" vertex="1" parent="1">
                    <mxGeometry x="1160" y="340" width="120" height="40" as="geometry"/>
                </mxCell>
                <mxCell id="68" value="User" style="ellipse;whiteSpace=wrap;html=1;fillColor=#d5e8d4;gradientColor=#97d077;strokeColor=#82b366;fontSize=14;fontStyle=1" vertex="1" parent="1">
                    <mxGeometry x="1160" y="380" width="120" height="40" as="geometry"/>
                </mxCell>
                <mxCell id="69" value="Contribution" style="ellipse;whiteSpace=wrap;html=1;fillColor=#d5e8d4;gradientColor=#97d077;strokeColor=#82b366;fontSize=14;fontStyle=1" vertex="1" parent="1">
                    <mxGeometry x="1160" y="420" width="120" height="40" as="geometry"/>
                </mxCell>
                <mxCell id="70" value="Rollen&amp;amp;Rechte" style="ellipse;whiteSpace=wrap;html=1;fillColor=#d5e8d4;gradientColor=#97d077;strokeColor=#82b366;fontSize=14;fontStyle=1" vertex="1" parent="1">
                    <mxGeometry x="1160" y="460" width="120" height="40" as="geometry"/>
                </mxCell>
                <mxCell id="71" value="Konten" style="ellipse;whiteSpace=wrap;html=1;fillColor=#d5e8d4;gradientColor=#97d077;strokeColor=#82b366;fontSize=14;fontStyle=1" vertex="1" parent="1">
                    <mxGeometry x="1160" y="500" width="120" height="40" as="geometry"/>
                </mxCell>
                <mxCell id="73" value="Backup-Provider" style="ellipse;whiteSpace=wrap;html=1;fillColor=#d5e8d4;gradientColor=#97d077;strokeColor=#82b366;fontSize=14;fontStyle=1" vertex="1" parent="1">
                    <mxGeometry x="1000" y="340" width="120" height="40" as="geometry"/>
                </mxCell>
                <mxCell id="78" style="edgeStyle=none;html=1;entryX=0.5;entryY=1;entryDx=0;entryDy=0;fontSize=14;endArrow=none;endFill=0;" edge="1" parent="1" source="74" target="73">
                    <mxGeometry relative="1" as="geometry"/>
                </mxCell>
                <mxCell id="74" value="Community" style="ellipse;whiteSpace=wrap;html=1;fillColor=#d5e8d4;gradientColor=#97d077;strokeColor=#82b366;fontSize=14;fontStyle=1" vertex="1" parent="1">
                    <mxGeometry x="1000" y="420" width="120" height="40" as="geometry"/>
                </mxCell>
                <mxCell id="75" value="User" style="ellipse;whiteSpace=wrap;html=1;fillColor=#d5e8d4;gradientColor=#97d077;strokeColor=#82b366;fontSize=14;fontStyle=1" vertex="1" parent="1">
                    <mxGeometry x="1000" y="460" width="120" height="40" as="geometry"/>
                </mxCell>
                <mxCell id="76" value="Contribution" style="ellipse;whiteSpace=wrap;html=1;fillColor=#d5e8d4;gradientColor=#97d077;strokeColor=#82b366;fontSize=14;fontStyle=1" vertex="1" parent="1">
                    <mxGeometry x="1000" y="500" width="120" height="40" as="geometry"/>
                </mxCell>
                <mxCell id="77" value="Konto" style="ellipse;whiteSpace=wrap;html=1;fillColor=#d5e8d4;gradientColor=#97d077;strokeColor=#82b366;fontSize=14;fontStyle=1" vertex="1" parent="1">
                    <mxGeometry x="1000" y="540" width="120" height="40" as="geometry"/>
                </mxCell>
                <mxCell id="82" style="edgeStyle=none;html=1;entryX=1;entryY=0.5;entryDx=0;entryDy=0;fontSize=14;endArrow=none;endFill=0;" edge="1" parent="1" source="79" target="33">
                    <mxGeometry relative="1" as="geometry"/>
                </mxCell>
                <mxCell id="79" value="online" style="ellipse;whiteSpace=wrap;html=1;fillColor=#dae8fc;gradientColor=#7ea6e0;strokeColor=#6c8ebf;fontSize=14;fontStyle=1" vertex="1" parent="1">
                    <mxGeometry x="920" y="1000" width="120" height="40" as="geometry"/>
                </mxCell>
                <mxCell id="80" value="per Link" style="ellipse;whiteSpace=wrap;html=1;fillColor=#dae8fc;gradientColor=#7ea6e0;strokeColor=#6c8ebf;fontSize=14;fontStyle=1" vertex="1" parent="1">
                    <mxGeometry x="920" y="1040" width="120" height="40" as="geometry"/>
                </mxCell>
                <mxCell id="81" value="per QR-Code" style="ellipse;whiteSpace=wrap;html=1;fillColor=#dae8fc;gradientColor=#7ea6e0;strokeColor=#6c8ebf;fontSize=14;fontStyle=1" vertex="1" parent="1">
                    <mxGeometry x="920" y="1080" width="120" height="40" as="geometry"/>
                </mxCell>
                <mxCell id="83" value="online" style="ellipse;whiteSpace=wrap;html=1;fillColor=#dae8fc;gradientColor=#7ea6e0;strokeColor=#6c8ebf;fontSize=14;fontStyle=1" vertex="1" parent="1">
                    <mxGeometry x="750" y="1110" width="120" height="40" as="geometry"/>
                </mxCell>
                <mxCell id="84" value="redeem" style="ellipse;whiteSpace=wrap;html=1;fillColor=#dae8fc;gradientColor=#7ea6e0;strokeColor=#6c8ebf;fontSize=14;fontStyle=1" vertex="1" parent="1">
                    <mxGeometry x="750" y="1150" width="120" height="40" as="geometry"/>
                </mxCell>
                <mxCell id="86" value="Auswertung&lt;span style=&quot;color: rgba(0 , 0 , 0 , 0) ; font-family: monospace ; font-size: 0px ; font-weight: 400&quot;&gt;%3CmxGraphModel%3E%3Croot%3E%3CmxCell%20id%3D%220%22%2F%3E%3CmxCell%20id%3D%221%22%20parent%3D%220%22%2F%3E%3CmxCell%20id%3D%222%22%20value%3D%22Verwaltung%22%20style%3D%22ellipse%3BwhiteSpace%3Dwrap%3Bhtml%3D1%3BfillColor%3D%23d5e8d4%3BgradientColor%3D%2397d077%3BstrokeColor%3D%2382b366%3BfontSize%3D14%3BfontStyle%3D1%22%20vertex%3D%221%22%20parent%3D%221%22%3E%3CmxGeometry%20x%3D%221000%22%20y%3D%22300%22%20width%3D%22120%22%20height%3D%2240%22%20as%3D%22geometry%22%2F%3E%3C%2FmxCell%3E%3C%2Froot%3E%3C%2FmxGraphModel%3E&lt;/span&gt;" style="ellipse;whiteSpace=wrap;html=1;fillColor=#d5e8d4;gradientColor=#97d077;strokeColor=#82b366;fontSize=14;fontStyle=1" vertex="1" parent="1">
                    <mxGeometry x="1000" y="380" width="120" height="40" as="geometry"/>
                </mxCell>
                <mxCell id="87" style="edgeStyle=none;html=1;entryX=0.5;entryY=1;entryDx=0;entryDy=0;fontSize=14;endArrow=none;endFill=0;" edge="1" parent="1" source="88" target="86">
                    <mxGeometry relative="1" as="geometry"/>
                </mxCell>
                <mxCell id="88" value="Community" style="ellipse;whiteSpace=wrap;html=1;fillColor=#d5e8d4;gradientColor=#97d077;strokeColor=#82b366;fontSize=14;fontStyle=1" vertex="1" parent="1">
                    <mxGeometry x="1000" y="460" width="120" height="40" as="geometry"/>
                </mxCell>
                <mxCell id="89" value="User" style="ellipse;whiteSpace=wrap;html=1;fillColor=#d5e8d4;gradientColor=#97d077;strokeColor=#82b366;fontSize=14;fontStyle=1" vertex="1" parent="1">
                    <mxGeometry x="1000" y="500" width="120" height="40" as="geometry"/>
                </mxCell>
                <mxCell id="90" value="Contribution" style="ellipse;whiteSpace=wrap;html=1;fillColor=#d5e8d4;gradientColor=#97d077;strokeColor=#82b366;fontSize=14;fontStyle=1" vertex="1" parent="1">
                    <mxGeometry x="1000" y="540" width="120" height="40" as="geometry"/>
                </mxCell>
                <mxCell id="91" value="Konto" style="ellipse;whiteSpace=wrap;html=1;fillColor=#d5e8d4;gradientColor=#97d077;strokeColor=#82b366;fontSize=14;fontStyle=1" vertex="1" parent="1">
                    <mxGeometry x="1000" y="580" width="120" height="40" as="geometry"/>
                </mxCell>
            </root>
        </mxGraphModel>
    </diagram>
</mxfile>